<svg width="1026" height="981" viewBox="0 0 1026 981" fill="none" xmlns="http://www.w3.org/2000/svg">
<path fill-rule="evenodd" clip-rule="evenodd" d="M801.251 3.10238C802.96 1.13187 805.44 0 808.049 0H1016.02C1023.73 0 1027.87 9.07037 1022.82 14.8976L774.535 301.102C771.599 304.486 771.599 309.514 774.535 312.898L1022.82 599.102C1027.87 604.93 1023.73 614 1016.02 614H808.049C805.44 614 802.96 612.868 801.251 610.898L660.317 448.439C656.729 444.302 650.309 444.302 646.72 448.439L505.787 610.898C504.077 612.868 501.597 614 498.988 614H291.017C283.303 614 279.164 604.93 284.219 599.102L532.502 312.898C535.438 309.514 535.438 304.486 532.502 301.102L284.219 14.8976C279.164 9.07037 283.303 0 291.018 0H498.988C501.597 0 504.077 1.13187 505.787 3.10238L646.72 165.561C650.309 169.698 656.729 169.698 660.317 165.561L801.251 3.10238Z" fill="#1A9E37"/>
<path fill-rule="evenodd" clip-rule="evenodd" d="M336 980.6C521.568 980.6 672 836.749 672 659.3C672 481.851 521.568 338 336 338C150.432 338 0 481.851 0 659.3C0 836.749 150.432 980.6 336 980.6ZM334.826 875.6C458.754 875.6 559.217 779.229 559.217 660.35C559.217 541.471 458.754 445.1 334.826 445.1C210.897 445.1 110.434 541.471 110.434 660.35C110.434 779.229 210.897 875.6 334.826 875.6Z" fill="#745DFF"/>
<path fill-rule="evenodd" clip-rule="evenodd" d="M336 980.6C521.568 980.6 672 836.749 672 659.3C672 481.851 521.568 338 336 338C150.432 338 0 481.851 0 659.3C0 836.749 150.432 980.6 336 980.6ZM334.826 875.6C458.754 875.6 559.217 779.229 559.217 660.35C559.217 541.471 458.754 445.1 334.826 445.1C210.897 445.1 110.434 541.471 110.434 660.35C110.434 779.229 210.897 875.6 334.826 875.6Z" fill="black" fill-opacity="0.2"/>
</svg>
